<svg width="125" height="125" viewBox="0 0 125 125" fill="none" xmlns="http://www.w3.org/2000/svg">
<path d="M0.333252 62.828C0.333252 28.5863 28.0916 0.827881 62.3333 0.827881C96.575 0.827881 124.333 28.5863 124.333 62.828V124.828H0.333252V62.828Z" fill="#F3AFA8"/>
<path d="M32.5018 98.8838L39.1 98.8838L39.1 92.0557L32.5017 92.0557L32.5018 98.8838ZM87.4351 42.8732C87.4351 42.4113 87.0733 42.0369 86.627 42.0369L79.3539 42.0369C78.9076 42.0369 78.5458 42.4113 78.5458 42.8732C78.5458 43.335 78.9076 43.7094 79.3539 43.7094L85.8189 43.7094L85.8189 50.3996C85.8189 50.8614 86.1807 51.2358 86.627 51.2358C87.0733 51.2358 87.4351 50.8614 87.4351 50.3996L87.4351 42.8732ZM36.3723 96.0611L87.1984 43.4645L86.0556 42.2818L35.2294 94.8785L36.3723 96.0611Z" fill="#2D2D2D"/>
</svg>
